PathFileType	4	(X/Y/Z)	subject01_walk1.trc
DataRate	CameraRate	NumFrames	NumMarkers	Units	OrigDataRate	OrigDataStartFrame	OrigNumFrames
60.00	60.00	       6	41	mm	60.00	1	       900
Frame#	Time	R.ASIS			L.ASIS			V.Sacral			R.Thigh.Upper			R.Thigh.Front			R.Thigh.Rear			L.Thigh.Upper			L.Thigh.Front			L.Thigh.Rear			R.Shank.Upper			R.Shank.Front			R.Shank.Rear			L.Shank.Upper			L.Shank.Front			L.Shank.Rear			R.Heel			R.Midfoot.Sup			R.Midfoot.Lat			R.Toe.Tip			L.Heel			L.Midfoot.Sup			L.Midfoot.Lat			L.Toe.Tip			Sternum			R.Acromium			L.Acromium			R.Bicep			L.Bicep			R.Elbow			L.Elbow			R.Wrist.Med			R.Wrist.Lat			L.Wrist.Med			L.Wrist.Lat			R.Toe.Lat			R.Toe.Med			L.Toe.Lat			L.Toe.Med			R.Temple			L.Temple			Top.Head			
		X1	Y1	Z1	X2	Y2	Z2	X3	Y3	Z3	X4	Y4	Z4	X5	Y5	Z5	X6	Y6	Z6	X7	Y7	Z7	X8	Y8	Z8	X9	Y9	Z9	X10	Y10	Z10	X11	Y11	Z11	X12	Y12	Z12	X13	Y13	Z13	X14	Y14	Z14	X15	Y15	Z15	X16	Y16	Z16	X17	Y17	Z17	X18	Y18	Z18	X19	Y19	Z19	X20	Y20	Z20	X21	Y21	Z21	X22	Y22	Z22	X23	Y23	Z23	X24	Y24	Z24	X25	Y25	Z25	X26	Y26	Z26	X27	Y27	Z27	X28	Y28	Z28	X29	Y29	Z29	X30	Y30	Z30	X31	Y31	Z31	X32	Y32	Z32	X33	Y33	Z33	X34	Y34	Z34	X35	Y35	Z35	X36	Y36	Z36	X37	Y37	Z37	X38	Y38	Z38	X39	Y39	Z39	X40	Y40	Z40	X41	Y41	Z41	

1	0.000000	617.247620	1055.275020	170.781980	639.606380	1044.258420	-88.909790	430.869840	1051.264650	29.966750	517.332700	741.096010	212.083370	570.201480	666.705570	123.685540	480.064270	626.514830	199.553850	659.578920	745.057980	-145.972180	750.480900	735.850100	-73.485050	697.429630	642.681820	-137.369600	360.903900	474.040040	186.849290	420.867430	412.366030	134.719330	343.737370	388.036680	189.831620	750.326230	446.176970	-128.527770	819.763850	415.132170	-81.700000	750.045840	397.940980	-138.884000	156.442760	113.073070	104.002570	297.180880	88.122130	67.068500	288.246640	73.766230	176.630140	429.092860	43.086100	110.597690	815.764160	63.397880	-51.758690	967.989930	122.580540	-32.770400	943.789250	105.337200	-122.344420	1078.709350	143.547960	-60.935870	660.826780	1353.775270	20.198390	566.598390	1449.579590	229.996520	596.423830	1468.968140	-186.700210	593.641480	1249.107910	279.776400	580.734680	1233.741330	-222.927320	567.002500	1143.109250	315.566310	518.102780	1146.324830	-260.958280	771.563290	973.779110	273.787600	746.206970	944.378110	327.452820	619.823060	916.169800	-218.327270	574.162540	905.877320	-276.121460	366.122960	35.908210	193.140780	375.865840	39.868800	81.171850	1022.039610	113.138240	-136.458110	1034.970460	125.078770	-34.938210	736.522340	1571.581540	106.420870	748.242000	1574.964110	-31.667230	749.332460	1747.607670	46.741460	
2	0.017000	617.998110	1053.217530	168.513170	641.236210	1042.278560	-90.932130	432.340610	1050.237430	26.846790	516.613770	740.425900	211.219420	570.518920	664.198730	123.393650	479.640380	625.653080	199.315280	661.613100	743.567320	-146.438720	756.852230	736.423030	-77.160840	700.719790	641.492980	-135.753070	357.694060	474.357210	187.046230	415.392180	411.818080	134.787280	336.911320	390.057340	190.880170	755.121090	443.931430	-128.734700	820.419740	409.886230	-79.031710	750.565120	396.968080	-137.307860	141.983630	121.290870	105.037800	281.978730	91.634580	68.466230	271.807310	75.749180	177.510510	409.883610	43.139170	110.563590	799.819890	65.800630	-49.946300	957.451660	113.746440	-27.677100	943.789250	105.337200	-122.344420	1069.276610	128.480790	-56.201500	661.329160	1352.708250	17.243570	566.924800	1448.941530	226.132840	596.420230	1466.414920	-191.477110	593.204530	1248.558350	276.043640	582.396420	1230.638430	-225.945140	566.137330	1142.562130	312.590550	519.930420	1142.172850	-262.841610	767.166440	969.574220	272.552610	742.405520	941.010620	325.924410	623.054810	912.317320	-220.418560	576.285830	902.639040	-278.463500	346.245030	35.811000	193.414950	358.949890	39.805740	80.935070	1011.082150	101.083560	-132.527340	1024.002200	111.614400	-30.679700	736.041870	1570.830570	101.785740	748.411620	1574.041500	-36.665130	750.679810	1746.670410	41.164230	
3	0.033000	620.292240	1051.771240	165.859380	643.596920	1041.060790	-94.307220	434.099430	1049.341430	23.819360	517.778930	739.680910	209.929780	570.455080	663.090940	123.093710	479.470610	625.036680	199.232740	663.777160	742.559390	-147.206860	760.838620	737.404660	-80.506140	702.586000	640.568480	-134.511340	355.966030	476.074310	187.729060	411.189450	410.485350	135.654970	332.246430	392.039550	191.390080	755.766360	441.964970	-126.803730	821.314880	407.066130	-76.997910	750.775880	396.232850	-136.232160	128.058360	130.381680	106.092020	267.076810	95.341160	69.879100	255.805770	78.122710	178.352940	390.767520	43.101560	110.350460	784.396790	68.058780	-48.836530	946.333250	105.409500	-23.485970	932.771240	97.336270	-120.643270	1059.063960	113.935060	-52.284060	663.198120	1351.786870	13.631070	567.569700	1448.222290	221.828410	596.462100	1463.917850	-196.019380	593.008850	1248.748410	272.547940	585.184450	1227.726070	-228.905010	564.973450	1142.939940	308.379270	523.074520	1139.112790	-266.437650	762.157470	964.989500	271.422970	735.976990	937.316220	324.738190	626.505070	909.226810	-223.191270	579.662290	899.121220	-281.073090	328.922580	34.778720	193.968580	341.756870	39.430590	80.787350	999.318420	89.325510	-129.324200	1012.506290	98.882810	-27.288000	736.570860	1570.542240	96.864830	748.854680	1571.859500	-41.940810	751.039670	1746.680180	36.059210	
4	0.050000	621.540410	1050.552120	163.532500	646.751040	1040.356810	-96.861880	436.279940	1048.707150	20.952020	519.197450	739.325810	208.325210	571.931270	661.637510	123.224230	481.819180	624.230160	198.056850	666.235050	742.390320	-148.493100	763.567630	737.954160	-84.020150	703.218810	640.386410	-133.903430	356.086670	476.893160	187.230710	409.443730	410.433780	135.696300	329.610750	394.471250	191.915270	758.634460	441.582490	-127.015460	821.669010	405.638150	-75.786090	750.514220	395.895660	-136.164900	115.332880	141.108140	107.070240	252.839020	99.488570	71.288980	240.509050	81.288460	179.090060	371.835020	42.888710	109.902530	769.445980	70.037540	-48.768340	934.096920	97.975190	-20.897740	920.937990	90.006970	-119.476440	1047.431270	100.489810	-49.765160	664.717710	1351.305050	9.243790	568.009460	1448.125610	216.410840	599.003850	1461.877810	-201.063890	592.682070	1249.016110	268.268010	587.178590	1225.284180	-232.171010	562.626890	1143.382200	304.280610	526.087160	1135.987550	-268.874390	756.536870	960.192750	270.024320	729.973750	933.632810	323.821110	629.702330	906.313720	-225.578340	581.977540	895.941040	-283.059140	310.683750	34.731330	194.065190	324.278960	38.879560	80.764400	986.249820	78.367200	-127.329610	999.945920	87.508250	-25.276780	736.536250	1571.208250	92.581090	749.982240	1572.002440	-45.996900	751.068420	1747.012820	30.698870	
5	0.067000	624.588440	1050.928340	161.246140	649.254150	1041.425170	-98.484610	438.827940	1048.451050	18.272670	522.168460	738.279050	206.223540	577.197880	661.205260	122.122270	485.720400	623.187560	197.993480	669.024960	743.210330	-150.405120	766.526370	737.576110	-86.548530	706.448610	641.321410	-135.479970	359.100430	478.782710	187.310710	409.768550	409.989720	136.622990	328.795900	397.801030	192.135210	764.306760	441.880950	-129.775440	819.406800	403.626710	-75.057770	749.661990	395.971590	-137.468700	104.669980	154.010060	107.811000	239.742050	104.378020	72.631480	226.079570	85.658600	179.645800	353.209260	42.461980	109.340610	754.430300	71.636760	-49.643900	920.410160	91.703790	-20.194990	907.756770	83.828000	-119.121990	1034.057620	88.697920	-48.798420	666.132510	1351.515630	4.628110	568.555970	1448.636470	211.908680	600.127260	1460.291500	-206.097440	591.977600	1249.313840	263.233830	590.491820	1223.499880	-236.037950	560.859860	1144.384640	300.735020	528.632200	1134.045040	-271.920650	750.106320	955.174440	269.175260	721.467770	930.058110	323.391390	633.410340	904.049440	-227.971250	586.006770	894.022830	-285.905460	292.770320	33.787990	194.147090	306.888700	38.662980	80.807630	971.722960	68.749270	-126.639880	985.938290	77.908320	-24.668100	737.625490	1572.048340	87.804470	750.345700	1572.990230	-51.104570	750.734190	1748.232790	25.321170	
6	0.083000	628.158630	1051.420170	158.448990	652.041260	1043.046510	-101.857370	441.572050	1048.661250	15.770330	526.802800	738.126100	205.653310	584.087340	660.597960	120.847050	490.793640	622.241580	197.319820	671.815490	744.888060	-152.950500	766.966800	739.853030	-85.032910	709.177310	643.279050	-136.130540	366.042110	481.020420	188.673520	413.341310	408.717530	136.338440	330.846560	400.647670	193.439000	759.475890	442.173430	-130.737760	816.065430	402.276180	-75.444730	747.885310	396.323910	-140.116320	97.064280	169.387220	108.161000	228.389510	110.307750	73.808850	212.842180	91.667360	179.952120	335.073210	41.768600	108.900650	738.832400	72.809520	-51.153690	905.336360	86.733850	-21.041400	893.109800	79.002090	-119.562520	1019.033330	78.890880	-49.124400	667.783870	1352.009890	-0.131340	570.762570	1450.026610	206.862260	600.595580	1460.497190	-211.407200	590.940120	1250.751220	259.042850	593.760560	1223.083250	-239.714430	558.846010	1145.637450	295.842770	533.799440	1131.967160	-274.530730	742.861330	950.519170	268.833560	712.263000	929.030090	323.789580	635.945860	902.428530	-228.987780	588.334780	891.757260	-287.015930	276.405880	34.303540	194.019680	290.229950	39.311170	80.831730	955.870060	60.793510	-127.015210	970.424560	70.228080	-25.115320	738.612000	1573.103390	82.110920	751.778260	1575.626830	-55.814700	751.360840	1749.582520	19.812450	
